Comic Neue Angular Bold Oblique.ufo
<glyph name="exclam" format="1">
  <advance width="211"/>
  <unicode hex="0021"/>
  <outline>
    <contour>
      <point x="127" y="179" type="line"/>
      <point x="233" y="679" type="line"/>
      <point x="135" y="662" type="line"/>
      <point x="29" y="160" type="line"/>
    </contour>
    <contour>
      <point x="122" y="134" type="line"/>
      <point x="20" y="117" type="line"/>
      <point x="-16" y="-5" type="line"/>
      <point x="86" y="12" type="line"/>
    </contour>
  </outline>
</glyph>
<glyph name="dollar" format="1">
  <advance width="631"/>
  <unicode hex="0024"/>
  <outline>
    <contour>
      <point x="422" y="573" type="line"/>
      <point x="465" y="567"/>
      <point x="499" y="549"/>
      <point x="499" y="517" type="curve" smooth="yes"/>
      <point x="499" y="512"/>
      <point x="497" y="491"/>
      <point x="482" y="458" type="curve"/>
      <point x="582" y="477" type="line"/>
      <point x="591" y="507"/>
      <point x="596" y="525"/>
      <point x="596" y="545" type="curve" smooth="yes"/>
      <point x="596" y="635"/>
      <point x="506" y="658"/>
      <point x="442" y="664" type="curve"/>
      <point x="456" y="733" type="line"/>
      <point x="359" y="716" type="line"/>
      <point x="347" y="659" type="line"/>
      <point x="268" y="647"/>
      <point x="140" y="587"/>
      <point x="140" y="458" type="curve" smooth="yes"/>
      <point x="140" y="384"/>
      <point x="203" y="340"/>
      <point x="273" y="314" type="curve"/>
      <point x="227" y="98" type="line"/>
      <point x="185" y="108"/>
      <point x="150" y="139"/>
      <point x="142" y="196" type="curve"/>
      <point x="38" y="180" type="line"/>
      <point x="49" y="85"/>
      <point x="114" y="18"/>
      <point x="207" y="3" type="curve"/>
      <point x="191" y="-73" type="line"/>
      <point x="289" y="-55" type="line"/>
      <point x="301" y="4" type="line"/>
      <point x="414" y="22"/>
      <point x="532" y="105"/>
      <point x="532" y="232" type="curve" smooth="yes"/>
      <point x="532" y="302"/>
      <point x="482" y="353"/>
      <point x="383" y="387" type="curve"/>
    </contour>
    <contour>
      <point x="296" y="419" type="line"/>
      <point x="261" y="436"/>
      <point x="245" y="454"/>
      <point x="245" y="476" type="curve" smooth="yes"/>
      <point x="245" y="523"/>
      <point x="291" y="555"/>
      <point x="327" y="566" type="curve"/>
    </contour>
    <contour>
      <point x="361" y="283" type="line"/>
      <point x="398" y="267"/>
      <point x="427" y="248"/>
      <point x="427" y="213" type="curve" smooth="yes"/>
      <point x="427" y="154"/>
      <point x="370" y="116"/>
      <point x="322" y="102" type="curve"/>
    </contour>
  </outline>
</glyph>
<glyph name="percent" format="1">
  <advance width="754"/>
  <unicode hex="0025"/>
  <outline>
    <contour>
      <point x="324" y="384"/>
      <point x="415" y="466"/>
      <point x="415" y="560" type="curve" smooth="yes"/>
      <point x="415" y="627"/>
      <point x="367" y="677"/>
      <point x="296" y="677" type="curve" smooth="yes"/>
      <point x="207" y="677"/>
      <point x="116" y="594"/>
      <point x="116" y="500" type="curve" smooth="yes"/>
      <point x="116" y="433"/>
      <point x="164" y="384"/>
      <point x="234" y="384" type="curve" smooth="yes"/>
    </contour>
    <contour>
      <point x="301" y="582"/>
      <point x="318" y="564"/>
      <point x="318" y="541" type="curve" smooth="yes"/>
      <point x="318" y="508"/>
      <point x="286" y="478"/>
      <point x="254" y="478" type="curve" smooth="yes"/>
      <point x="230" y="478"/>
      <point x="213" y="496"/>
      <point x="213" y="519" type="curve" smooth="yes"/>
      <point x="213" y="551"/>
      <point x="244" y="582"/>
      <point x="276" y="582" type="curve" smooth="yes"/>
    </contour>
    <contour>
      <point x="538" y="-7"/>
      <point x="628" y="75"/>
      <point x="628" y="170" type="curve" smooth="yes"/>
      <point x="628" y="236"/>
      <point x="580" y="286"/>
      <point x="510" y="286" type="curve" smooth="yes"/>
      <point x="419" y="286"/>
      <point x="330" y="202"/>
      <point x="330" y="108" type="curve" smooth="yes"/>
      <point x="330" y="42"/>
      <point x="377" y="-7"/>
      <point x="448" y="-7" type="curve" smooth="yes"/>
    </contour>
    <contour>
      <point x="514" y="191"/>
      <point x="532" y="172"/>
      <point x="532" y="149" type="curve" smooth="yes"/>
      <point x="532" y="117"/>
      <point x="499" y="87"/>
      <point x="468" y="87" type="curve" smooth="yes"/>
      <point x="443" y="87"/>
      <point x="426" y="105"/>
      <point x="426" y="129" type="curve" smooth="yes"/>
      <point x="426" y="161"/>
      <point x="459" y="191"/>
      <point x="490" y="191" type="curve" smooth="yes"/>
    </contour>
    <contour>
      <point x="580" y="672" type="line"/>
      <point x="68" y="0" type="line"/>
      <point x="170" y="0" type="line"/>
      <point x="682" y="672" type="line"/>
    </contour>
  </outline>
</glyph>
<glyph name="quotesingle" format="1">
  <advance width="228"/>
  <unicode hex="0027"/>
  <outline>
    <contour>
      <point x="198" y="467" type="line"/>
      <point x="243" y="678" type="line"/>
      <point x="145" y="660" type="line"/>
      <point x="100" y="450" type="line"/>
    </contour>
  </outline>
</glyph>
<glyph name="hyphen" format="1">
  <advance width="468"/>
  <unicode hex="002D"/>
  <outline>
    <contour>
      <point x="360" y="203" type="line"/>
      <point x="398" y="297" type="line"/>
      <point x="85" y="297" type="line"/>
      <point x="48" y="203" type="line"/>
    </contour>
  </outline>
</glyph>
<glyph name="three" format="1">
  <advance width="575"/>
  <unicode hex="0033"/>
  <outline>
    <contour>
      <point x="526" y="610"/>
      <point x="456" y="667"/>
      <point x="355" y="667" type="curve" smooth="yes"/>
      <point x="264" y="667"/>
      <point x="174" y="601"/>
      <point x="143" y="577" type="curve"/>
      <point x="193" y="508" type="line"/>
      <point x="208" y="520"/>
      <point x="277" y="572"/>
      <point x="335" y="572" type="curve" smooth="yes"/>
      <point x="395" y="572"/>
      <point x="427" y="544"/>
      <point x="427" y="516" type="curve" smooth="yes"/>
      <point x="427" y="463"/>
      <point x="345" y="419"/>
      <point x="234" y="413" type="curve"/>
      <point x="219" y="320" type="line"/>
      <point x="305" y="320"/>
      <point x="379" y="299"/>
      <point x="379" y="231" type="curve" smooth="yes"/>
      <point x="379" y="154"/>
      <point x="308" y="91"/>
      <point x="238" y="91" type="curve" smooth="yes"/>
      <point x="182" y="91"/>
      <point x="139" y="128"/>
      <point x="135" y="194" type="curve"/>
      <point x="36" y="156" type="line"/>
      <point x="47" y="46"/>
      <point x="131" y="-4"/>
      <point x="218" y="-4" type="curve" smooth="yes"/>
      <point x="354" y="-4"/>
      <point x="477" y="118"/>
      <point x="477" y="248" type="curve" smooth="yes"/>
      <point x="477" y="304"/>
      <point x="449" y="345"/>
      <point x="410" y="374" type="curve"/>
      <point x="469" y="411"/>
      <point x="526" y="464"/>
      <point x="526" y="535" type="curve" smooth="yes"/>
    </contour>
  </outline>
</glyph>
<glyph name="six" format="1">
  <advance width="572"/>
  <unicode hex="0036"/>
  <outline>
    <contour>
      <point x="447" y="676" type="line"/>
      <point x="227" y="590"/>
      <point x="46" y="393"/>
      <point x="46" y="171" type="curve" smooth="yes"/>
      <point x="46" y="70"/>
      <point x="98" y="-5"/>
      <point x="222" y="-5" type="curve" smooth="yes"/>
      <point x="378" y="-5"/>
      <point x="486" y="161"/>
      <point x="486" y="299" type="curve" smooth="yes"/>
      <point x="486" y="442"/>
      <point x="347" y="447"/>
      <point x="328" y="447" type="curve" smooth="yes"/>
      <point x="293" y="447"/>
      <point x="265" y="443"/>
      <point x="237" y="434" type="curve"/>
      <point x="291" y="498"/>
      <point x="378" y="557"/>
      <point x="458" y="587" type="curve"/>
    </contour>
    <contour>
      <point x="185" y="318"/>
      <point x="239" y="354"/>
      <point x="308" y="354" type="curve" smooth="yes"/>
      <point x="330" y="354"/>
      <point x="392" y="348"/>
      <point x="392" y="275" type="curve" smooth="yes"/>
      <point x="392" y="193"/>
      <point x="329" y="89"/>
      <point x="242" y="89" type="curve" smooth="yes"/>
      <point x="193" y="89"/>
      <point x="141" y="108"/>
      <point x="141" y="189" type="curve" smooth="yes"/>
      <point x="141" y="217"/>
      <point x="148" y="262"/>
      <point x="161" y="300" type="curve"/>
    </contour>
  </outline>
</glyph>
<glyph name="D" format="1">
  <advance width="642"/>
  <unicode hex="0044"/>
  <outline>
    <contour>
      <point x="7" y="7" type="line"/>
      <point x="55" y="-7"/>
      <point x="122" y="-14"/>
      <point x="158" y="-14" type="curve" smooth="yes"/>
      <point x="404" y="-14"/>
      <point x="583" y="144"/>
      <point x="583" y="375" type="curve" smooth="yes"/>
      <point x="583" y="549"/>
      <point x="469" y="680"/>
      <point x="197" y="680" type="curve" smooth="yes"/>
      <point x="150" y="680" type="line"/>
    </contour>
    <contour>
      <point x="298" y="89"/>
      <point x="227" y="83"/>
      <point x="178" y="83" type="curve" smooth="yes"/>
      <point x="158" y="83"/>
      <point x="136" y="84"/>
      <point x="121" y="86" type="curve"/>
      <point x="226" y="583" type="line"/>
      <point x="360" y="583"/>
      <point x="484" y="509"/>
      <point x="484" y="368" type="curve" smooth="yes"/>
      <point x="484" y="255"/>
      <point x="430" y="164"/>
      <point x="357" y="123" type="curve" smooth="yes"/>
    </contour>
  </outline>
</glyph>
<glyph name="F" format="1">
  <advance width="531"/>
  <unicode hex="0046"/>
  <outline>
    <contour>
      <point x="571" y="582" type="line"/>
      <point x="610" y="681" type="line"/>
      <point x="144" y="681" type="line"/>
      <point x="-2" y="-5" type="line"/>
      <point x="101" y="12" type="line"/>
      <point x="161" y="295" type="line"/>
      <point x="464" y="295" type="line"/>
      <point x="502" y="395" type="line"/>
      <point x="182" y="395" type="line"/>
      <point x="222" y="582" type="line"/>
    </contour>
  </outline>
</glyph>
<glyph name="G" format="1">
  <advance width="770"/>
  <unicode hex="0047"/>
  <outline>
    <contour>
      <point x="694" y="299" type="line"/>
      <point x="651" y="310"/>
      <point x="608" y="316"/>
      <point x="569" y="316" type="curve" smooth="yes"/>
      <point x="513" y="316"/>
      <point x="447" y="306"/>
      <point x="387" y="288" type="curve"/>
      <point x="364" y="182" type="line"/>
      <point x="416" y="202"/>
      <point x="486" y="218"/>
      <point x="538" y="220" type="curve"/>
      <point x="491" y="141"/>
      <point x="416" y="95"/>
      <point x="321" y="95" type="curve" smooth="yes"/>
      <point x="183" y="95"/>
      <point x="148" y="237"/>
      <point x="172" y="341" type="curve" smooth="yes"/>
      <point x="190" y="424"/>
      <point x="289" y="586"/>
      <point x="443" y="586" type="curve" smooth="yes"/>
      <point x="546" y="586"/>
      <point x="597" y="524"/>
      <point x="601" y="430" type="curve"/>
      <point x="700" y="449" type="line"/>
      <point x="695" y="587"/>
      <point x="616" y="682"/>
      <point x="463" y="682" type="curve" smooth="yes"/>
      <point x="244" y="682"/>
      <point x="65" y="457"/>
      <point x="65" y="252" type="curve" smooth="yes"/>
      <point x="65" y="104"/>
      <point x="153" y="-2"/>
      <point x="300" y="-2" type="curve" smooth="yes"/>
      <point x="505" y="-2"/>
      <point x="601" y="142"/>
      <point x="634" y="210" type="curve"/>
      <point x="648" y="207"/>
      <point x="660" y="202"/>
      <point x="672" y="197" type="curve"/>
    </contour>
  </outline>
</glyph>
<glyph name="H" format="1">
  <advance width="709"/>
  <unicode hex="0048"/>
  <outline>
    <contour>
      <point x="611" y="668" type="line"/>
      <point x="559" y="422" type="line"/>
      <point x="184" y="370" type="line"/>
      <point x="251" y="686" type="line"/>
      <point x="148" y="668" type="line"/>
      <point x="5" y="-9" type="line"/>
      <point x="111" y="25" type="line"/>
      <point x="163" y="270" type="line"/>
      <point x="538" y="322" type="line"/>
      <point x="468" y="-9" type="line"/>
      <point x="574" y="25" type="line"/>
      <point x="714" y="686" type="line"/>
    </contour>
  </outline>
</glyph>
<glyph name="L" format="1">
  <advance width="513"/>
  <unicode hex="004C"/>
  <outline>
    <contour>
      <point x="3" y="-2" type="line"/>
      <point x="431" y="29" type="line"/>
      <point x="447" y="128" type="line"/>
      <point x="125" y="104" type="line"/>
      <point x="248" y="683" type="line"/>
      <point x="145" y="665" type="line"/>
    </contour>
  </outline>
</glyph>
<glyph name="M" format="1">
  <advance width="891"/>
  <unicode hex="004D"/>
  <outline>
    <contour>
      <point x="276" y="446" type="line"/>
      <point x="309" y="-3" type="line"/>
      <point x="417" y="11" type="line"/>
      <point x="660" y="467" type="line"/>
      <point x="660" y="-4" type="line"/>
      <point x="762" y="13" type="line"/>
      <point x="762" y="685" type="line"/>
      <point x="667" y="670" type="line"/>
      <point x="398" y="166" type="line"/>
      <point x="361" y="685" type="line"/>
      <point x="273" y="669" type="line"/>
      <point x="-12" y="-6" type="line"/>
      <point x="92" y="12" type="line"/>
    </contour>
  </outline>
</glyph>
<glyph name="N" format="1">
  <advance width="641"/>
  <unicode hex="004E"/>
  <outline>
    <contour>
      <point x="549" y="668" type="line"/>
      <point x="447" y="184" type="line"/>
      <point x="239" y="685" type="line"/>
      <point x="146" y="660" type="line"/>
      <point x="6" y="-4" type="line"/>
      <point x="106" y="15" type="line"/>
      <point x="206" y="489" type="line"/>
      <point x="409" y="-3" type="line"/>
      <point x="507" y="16" type="line"/>
      <point x="649" y="686" type="line"/>
    </contour>
  </outline>
</glyph>
<glyph name="P" format="1">
  <advance width="571"/>
  <unicode hex="0050"/>
  <outline>
    <contour>
      <point x="150" y="223" type="line"/>
      <point x="335" y="234"/>
      <point x="574" y="310"/>
      <point x="574" y="510" type="curve" smooth="yes"/>
      <point x="574" y="655"/>
      <point x="403" y="679"/>
      <point x="277" y="679" type="curve" smooth="yes"/>
      <point x="244" y="679"/>
      <point x="178" y="675"/>
      <point x="148" y="673" type="curve"/>
      <point x="3" y="-5" type="line"/>
      <point x="105" y="12" type="line"/>
    </contour>
    <contour>
      <point x="226" y="580" type="line"/>
      <point x="246" y="580" type="line" smooth="yes"/>
      <point x="420" y="580"/>
      <point x="471" y="536"/>
      <point x="471" y="480" type="curve" smooth="yes"/>
      <point x="471" y="398"/>
      <point x="361" y="336"/>
      <point x="171" y="321" type="curve"/>
    </contour>
  </outline>
</glyph>
<glyph name="Q" format="1">
  <advance width="747"/>
  <unicode hex="0051"/>
  <outline>
    <contour>
      <point x="541" y="114" type="line"/>
      <point x="632" y="195"/>
      <point x="695" y="314"/>
      <point x="695" y="438" type="curve" smooth="yes"/>
      <point x="695" y="575"/>
      <point x="609" y="679"/>
      <point x="468" y="679" type="curve" smooth="yes"/>
      <point x="273" y="679"/>
      <point x="53" y="468"/>
      <point x="53" y="239" type="curve" smooth="yes"/>
      <point x="53" y="102"/>
      <point x="140" y="-1"/>
      <point x="280" y="-1" type="curve" smooth="yes"/>
      <point x="337" y="-1"/>
      <point x="397" y="17"/>
      <point x="453" y="48" type="curve"/>
      <point x="574" y="-42" type="line"/>
      <point x="634" y="42" type="line"/>
    </contour>
    <contour>
      <point x="388" y="230" type="line"/>
      <point x="287" y="175" type="line"/>
      <point x="375" y="111" type="line"/>
      <point x="349" y="100"/>
      <point x="327" y="95"/>
      <point x="301" y="95" type="curve" smooth="yes"/>
      <point x="212" y="95"/>
      <point x="158" y="162"/>
      <point x="158" y="257" type="curve" smooth="yes"/>
      <point x="158" y="428"/>
      <point x="311" y="582"/>
      <point x="440" y="582" type="curve" smooth="yes"/>
      <point x="534" y="582"/>
      <point x="589" y="502"/>
      <point x="589" y="409" type="curve" smooth="yes"/>
      <point x="589" y="319"/>
      <point x="535" y="229"/>
      <point x="470" y="170" type="curve"/>
    </contour>
  </outline>
</glyph>
<glyph name="T" format="1">
  <advance width="548"/>
  <unicode hex="0054"/>
  <outline>
    <contour>
      <point x="151" y="-5" type="line"/>
      <point x="255" y="12" type="line"/>
      <point x="376" y="582" type="line"/>
      <point x="590" y="582" type="line"/>
      <point x="611" y="681" type="line"/>
      <point x="98" y="681" type="line"/>
      <point x="77" y="582" type="line"/>
      <point x="276" y="582" type="line"/>
    </contour>
  </outline>
</glyph>
<glyph name="Z" format="1">
  <advance width="647"/>
  <unicode hex="005A"/>
  <outline>
    <contour>
      <point x="22" y="0" type="line"/>
      <point x="502" y="0" type="line"/>
      <point x="540" y="103" type="line"/>
      <point x="148" y="103" type="line"/>
      <point x="656" y="603" type="line"/>
      <point x="636" y="681" type="line"/>
      <point x="176" y="681" type="line"/>
      <point x="137" y="578" type="line"/>
      <point x="509" y="578" type="line"/>
      <point x="2" y="77" type="line"/>
    </contour>
  </outline>
</glyph>
<glyph name="bracketright" format="1">
  <advance width="341"/>
  <unicode hex="005D"/>
  <outline>
    <contour>
      <point x="189" y="778" type="line"/>
      <point x="152" y="683" type="line"/>
      <point x="269" y="683" type="line"/>
      <point x="120" y="-18" type="line"/>
      <point x="6" y="-18" type="line"/>
      <point x="-32" y="-113" type="line"/>
      <point x="194" y="-113" type="line"/>
      <point x="384" y="778" type="line"/>
    </contour>
  </outline>
</glyph>
<glyph name="asciicircum" format="1">
  <advance width="526"/>
  <unicode hex="005E"/>
  <outline>
    <contour>
      <point x="232" y="644" type="line"/>
      <point x="355" y="726" type="line"/>
      <point x="428" y="645" type="line"/>
      <point x="506" y="714" type="line"/>
      <point x="388" y="854" type="line"/>
      <point x="189" y="718" type="line"/>
    </contour>
  </outline>
</glyph>
<glyph name="grave" format="1">
  <advance width="526"/>
  <unicode hex="0060"/>
  <outline>
    <contour>
      <point x="465" y="703" type="line"/>
      <point x="355" y="870" type="line"/>
      <point x="247" y="816" type="line"/>
      <point x="374" y="654" type="line"/>
    </contour>
  </outline>
</glyph>
<glyph name="a" format="1">
  <advance width="530"/>
  <unicode hex="0061"/>
  <outline>
    <contour>
      <point x="490" y="466" type="line"/>
      <point x="444" y="492"/>
      <point x="392" y="512"/>
      <point x="338" y="512" type="curve" smooth="yes"/>
      <point x="168" y="512"/>
      <point x="33" y="312"/>
      <point x="33" y="166" type="curve" smooth="yes"/>
      <point x="33" y="69"/>
      <point x="93" y="6"/>
      <point x="186" y="6" type="curve" smooth="yes"/>
      <point x="227" y="6"/>
      <point x="266" y="18"/>
      <point x="302" y="34" type="curve"/>
      <point x="293" y="-5" type="line"/>
      <point x="393" y="13" type="line"/>
    </contour>
    <contour>
      <point x="342" y="417"/>
      <point x="367" y="412"/>
      <point x="382" y="404" type="curve"/>
      <point x="323" y="143" type="line"/>
      <point x="295" y="126"/>
      <point x="245" y="102"/>
      <point x="205" y="102" type="curve" smooth="yes"/>
      <point x="151" y="102"/>
      <point x="133" y="145"/>
      <point x="133" y="189" type="curve" smooth="yes"/>
      <point x="133" y="292"/>
      <point x="218" y="417"/>
      <point x="323" y="417" type="curve" smooth="yes"/>
    </contour>
  </outline>
</glyph>
<glyph name="d" format="1">
  <advance width="552"/>
  <unicode hex="0064"/>
  <outline>
    <contour>
      <point x="455" y="667" type="line"/>
      <point x="411" y="479" type="line"/>
      <point x="382" y="488"/>
      <point x="350" y="496"/>
      <point x="320" y="496" type="curve" smooth="yes"/>
      <point x="162" y="496"/>
      <point x="34" y="347"/>
      <point x="34" y="163" type="curve" smooth="yes"/>
      <point x="34" y="78"/>
      <point x="74" y="5"/>
      <point x="172" y="5" type="curve" smooth="yes"/>
      <point x="229" y="5"/>
      <point x="271" y="23"/>
      <point x="310" y="47" type="curve"/>
      <point x="299" y="-5" type="line"/>
      <point x="399" y="12" type="line"/>
      <point x="557" y="684" type="line"/>
    </contour>
    <contour>
      <point x="340" y="171" type="line" smooth="yes"/>
      <point x="335" y="149"/>
      <point x="269" y="95"/>
      <point x="191" y="95" type="curve" smooth="yes"/>
      <point x="144" y="95"/>
      <point x="132" y="134"/>
      <point x="132" y="175" type="curve" smooth="yes"/>
      <point x="132" y="222"/>
      <point x="158" y="402"/>
      <point x="295" y="402" type="curve" smooth="yes"/>
      <point x="337" y="402"/>
      <point x="371" y="386"/>
      <point x="388" y="376" type="curve"/>
    </contour>
  </outline>
</glyph>
<glyph name="g" format="1">
  <advance width="548"/>
  <unicode hex="0067"/>
  <outline>
    <contour>
      <point x="517" y="512" type="line"/>
      <point x="416" y="497" type="line"/>
      <point x="414" y="487" type="line"/>
      <point x="392" y="497"/>
      <point x="370" y="501"/>
      <point x="337" y="501" type="curve" smooth="yes"/>
      <point x="166" y="501"/>
      <point x="38" y="327"/>
      <point x="38" y="182" type="curve" smooth="yes"/>
      <point x="38" y="79"/>
      <point x="101" y="10"/>
      <point x="198" y="10" type="curve" smooth="yes"/>
      <point x="237" y="10"/>
      <point x="275" y="19"/>
      <point x="309" y="42" type="curve"/>
      <point x="301" y="9"/>
      <point x="271" y="-72"/>
      <point x="175" y="-72" type="curve" smooth="yes"/>
      <point x="135" y="-72"/>
      <point x="88" y="-64"/>
      <point x="58" y="-56" type="curve"/>
      <point x="18" y="-150" type="line"/>
      <point x="56" y="-159"/>
      <point x="111" y="-168"/>
      <point x="155" y="-168" type="curve" smooth="yes"/>
      <point x="284" y="-168"/>
      <point x="375" y="-94"/>
      <point x="406" y="39" type="curve" smooth="yes"/>
    </contour>
    <contour>
      <point x="363" y="266" type="line" smooth="yes"/>
      <point x="335" y="137"/>
      <point x="266" y="104"/>
      <point x="213" y="104" type="curve" smooth="yes"/>
      <point x="152" y="104"/>
      <point x="131" y="159"/>
      <point x="131" y="209" type="curve" smooth="yes"/>
      <point x="131" y="312"/>
      <point x="224" y="406"/>
      <point x="322" y="406" type="curve" smooth="yes"/>
      <point x="348" y="406"/>
      <point x="373" y="397"/>
      <point x="389" y="386" type="curve"/>
    </contour>
  </outline>
</glyph>
<glyph name="t" format="1">
  <advance width="399"/>
  <unicode hex="0074"/>
  <outline>
    <contour>
      <point x="416" y="502" type="line"/>
      <point x="291" y="502" type="line"/>
      <point x="325" y="660" type="line"/>
      <point x="223" y="644" type="line"/>
      <point x="193" y="502" type="line"/>
      <point x="68" y="502" type="line"/>
      <point x="48" y="406" type="line"/>
      <point x="173" y="406" type="line"/>
      <point x="85" y="-5" type="line"/>
      <point x="187" y="12" type="line"/>
      <point x="271" y="406" type="line"/>
      <point x="396" y="406" type="line"/>
    </contour>
  </outline>
</glyph>
<glyph name="v" format="1">
  <advance width="473"/>
  <unicode hex="0076"/>
  <outline>
    <contour>
      <point x="495" y="473" type="line"/>
      <point x="412" y="507" type="line"/>
      <point x="204" y="156" type="line"/>
      <point x="145" y="507" type="line"/>
      <point x="48" y="471" type="line"/>
      <point x="133" y="-3" type="line"/>
      <point x="219" y="15" type="line"/>
    </contour>
  </outline>
</glyph>
<glyph name="w" format="1">
  <advance width="679"/>
  <unicode hex="0077"/>
  <outline>
    <contour>
      <point x="687" y="502" type="line"/>
      <point x="579" y="485" type="line"/>
      <point x="429" y="192" type="line"/>
      <point x="424" y="499" type="line"/>
      <point x="335" y="484" type="line"/>
      <point x="178" y="196" type="line"/>
      <point x="183" y="502" type="line"/>
      <point x="84" y="481" type="line"/>
      <point x="78" y="-5" type="line"/>
      <point x="172" y="14" type="line"/>
      <point x="331" y="296" type="line"/>
      <point x="340" y="-4" type="line"/>
      <point x="432" y="15" type="line"/>
    </contour>
  </outline>
</glyph>
<glyph name="asciitilde" format="1">
  <advance width="671"/>
  <unicode hex="007E"/>
  <outline>
    <contour>
      <point x="512" y="357" type="line"/>
      <point x="478" y="285"/>
      <point x="435" y="241"/>
      <point x="406" y="241" type="curve" smooth="yes"/>
      <point x="389" y="241"/>
      <point x="379" y="257"/>
      <point x="367" y="278" type="curve" smooth="yes"/>
      <point x="346" y="315"/>
      <point x="320" y="366"/>
      <point x="245" y="366" type="curve" smooth="yes"/>
      <point x="157" y="366"/>
      <point x="84" y="275"/>
      <point x="47" y="200" type="curve"/>
      <point x="124" y="157" type="line"/>
      <point x="130" y="172"/>
      <point x="176" y="261"/>
      <point x="223" y="261" type="curve" smooth="yes"/>
      <point x="243" y="261"/>
      <point x="255" y="239"/>
      <point x="268" y="214" type="curve" smooth="yes"/>
      <point x="289" y="174"/>
      <point x="315" y="136"/>
      <point x="383" y="136" type="curve" smooth="yes"/>
      <point x="492" y="136"/>
      <point x="569" y="272"/>
      <point x="592" y="314" type="curve"/>
    </contour>
  </outline>
</glyph>
<glyph name="exclamdown" format="1">
  <advance width="211"/>
  <unicode hex="00A1"/>
  <outline>
    <contour>
      <point x="58" y="321" type="line"/>
      <point x="-49" y="-179" type="line"/>
      <point x="50" y="-163" type="line"/>
      <point x="157" y="340" type="line"/>
    </contour>
    <contour>
      <point x="62" y="366" type="line"/>
      <point x="165" y="383" type="line"/>
      <point x="200" y="505" type="line"/>
      <point x="98" y="488" type="line"/>
    </contour>
  </outline>
</glyph>
<glyph name="currency" format="1">
  <advance width="526"/>
  <unicode hex="00A4"/>
  <outline>
    <contour>
      <point x="421" y="305"/>
      <point x="419" y="320"/>
      <point x="413" y="334" type="curve"/>
      <point x="496" y="403" type="line"/>
      <point x="445" y="468" type="line"/>
      <point x="361" y="398" type="line"/>
      <point x="339" y="412"/>
      <point x="314" y="418"/>
      <point x="285" y="418" type="curve" smooth="yes"/>
      <point x="256" y="418"/>
      <point x="228" y="412"/>
      <point x="201" y="398" type="curve"/>
      <point x="146" y="468" type="line"/>
      <point x="66" y="403" type="line"/>
      <point x="120" y="333" type="line"/>
      <point x="95" y="298"/>
      <point x="77" y="260"/>
      <point x="77" y="218" type="curve" smooth="yes"/>
      <point x="77" y="201"/>
      <point x="80" y="185"/>
      <point x="85" y="171" type="curve"/>
      <point x="2" y="103" type="line"/>
      <point x="54" y="37" type="line"/>
      <point x="136" y="105" type="line"/>
      <point x="157" y="91"/>
      <point x="184" y="83"/>
      <point x="214" y="83" type="curve" smooth="yes"/>
      <point x="243" y="83"/>
      <point x="273" y="91"/>
      <point x="300" y="105" type="curve"/>
      <point x="354" y="38" type="line"/>
      <point x="433" y="104" type="line"/>
      <point x="380" y="171" type="line"/>
      <point x="406" y="209"/>
      <point x="421" y="247"/>
      <point x="421" y="289" type="curve" smooth="yes"/>
    </contour>
    <contour>
      <point x="197" y="175"/>
      <point x="171" y="201"/>
      <point x="171" y="235" type="curve" smooth="yes"/>
      <point x="171" y="284"/>
      <point x="219" y="326"/>
      <point x="266" y="326" type="curve" smooth="yes"/>
      <point x="302" y="326"/>
      <point x="327" y="301"/>
      <point x="327" y="267" type="curve" smooth="yes"/>
      <point x="327" y="218"/>
      <point x="280" y="175"/>
      <point x="234" y="175" type="curve" smooth="yes"/>
    </contour>
  </outline>
</glyph>
<glyph name="section" format="1">
  <advance width="501"/>
  <unicode hex="00A7"/>
  <outline>
    <contour>
      <point x="314" y="287"/>
      <point x="287" y="294"/>
      <point x="257" y="304" type="curve"/>
      <point x="229" y="312"/>
      <point x="185" y="319"/>
      <point x="185" y="356" type="curve" smooth="yes"/>
      <point x="185" y="368"/>
      <point x="187" y="378"/>
      <point x="200" y="390" type="curve"/>
      <point x="316" y="358"/>
      <point x="347" y="339"/>
      <point x="347" y="312" type="curve" smooth="yes"/>
      <point x="347" y="304"/>
      <point x="346" y="291"/>
      <point x="334" y="275" type="curve"/>
    </contour>
    <contour>
      <point x="459" y="458" type="line"/>
      <point x="478" y="506"/>
      <point x="478" y="515"/>
      <point x="478" y="533" type="curve" smooth="yes"/>
      <point x="478" y="589"/>
      <point x="434" y="631"/>
      <point x="337" y="631" type="curve" smooth="yes"/>
      <point x="263" y="631"/>
      <point x="128" y="600"/>
      <point x="128" y="472" type="curve" smooth="yes"/>
      <point x="128" y="458"/>
      <point x="131" y="445"/>
      <point x="136" y="434" type="curve"/>
      <point x="117" y="413"/>
      <point x="102" y="379"/>
      <point x="102" y="342" type="curve" smooth="yes"/>
      <point x="102" y="285"/>
      <point x="146" y="248"/>
      <point x="228" y="220" type="curve" smooth="yes"/>
      <point x="285" y="200"/>
      <point x="306" y="184"/>
      <point x="306" y="161" type="curve" smooth="yes"/>
      <point x="306" y="149"/>
      <point x="287" y="94"/>
      <point x="208" y="94" type="curve" smooth="yes"/>
      <point x="160" y="94"/>
      <point x="130" y="123"/>
      <point x="122" y="172" type="curve"/>
      <point x="34" y="160" type="line"/>
      <point x="33" y="156"/>
      <point x="33" y="151"/>
      <point x="33" y="146" type="curve" smooth="yes"/>
      <point x="33" y="95"/>
      <point x="74" y="0"/>
      <point x="189" y="0" type="curve" smooth="yes"/>
      <point x="319" y="0"/>
      <point x="402" y="100"/>
      <point x="402" y="184" type="curve" smooth="yes"/>
      <point x="402" y="197"/>
      <point x="400" y="210"/>
      <point x="397" y="220" type="curve"/>
      <point x="421" y="253"/>
      <point x="429" y="291"/>
      <point x="429" y="319" type="curve" smooth="yes"/>
      <point x="429" y="394"/>
      <point x="368" y="416"/>
      <point x="293" y="441" type="curve" smooth="yes"/>
      <point x="267" y="450"/>
      <point x="224" y="463"/>
      <point x="224" y="492" type="curve" smooth="yes"/>
      <point x="224" y="523"/>
      <point x="263" y="541"/>
      <point x="319" y="541" type="curve" smooth="yes"/>
      <point x="368" y="541"/>
      <point x="381" y="526"/>
      <point x="381" y="509" type="curve" smooth="yes"/>
      <point x="381" y="499"/>
      <point x="378" y="489"/>
      <point x="371" y="472" type="curve"/>
    </contour>
  </outline>
</glyph>
<glyph name="dieresis" format="1">
  <advance width="526"/>
  <unicode hex="00A8"/>
  <outline>
    <contour>
      <point x="315" y="652" type="line"/>
      <point x="199" y="638" type="line"/>
      <point x="159" y="516" type="line"/>
      <point x="277" y="531" type="line"/>
    </contour>
    <contour>
      <point x="480" y="652" type="line"/>
      <point x="364" y="638" type="line"/>
      <point x="325" y="516" type="line"/>
      <point x="442" y="531" type="line"/>
    </contour>
  </outline>
</glyph>
<glyph name="ordfeminine" format="1">
  <advance width="276"/>
  <unicode hex="00AA"/>
  <outline>
    <contour>
      <point x="345" y="626" type="line"/>
      <point x="311" y="651"/>
      <point x="265" y="661"/>
      <point x="240" y="661" type="curve" smooth="yes"/>
      <point x="135" y="661"/>
      <point x="37" y="546"/>
      <point x="37" y="435" type="curve" smooth="yes"/>
      <point x="37" y="370"/>
      <point x="76" y="326"/>
      <point x="143" y="326" type="curve" smooth="yes"/>
      <point x="158" y="326"/>
      <point x="174" y="328"/>
      <point x="192" y="334" type="curve"/>
      <point x="188" y="315" type="line"/>
      <point x="283" y="333" type="line"/>
    </contour>
    <contour>
      <point x="213" y="433" type="line"/>
      <point x="198" y="426"/>
      <point x="177" y="416"/>
      <point x="160" y="416" type="curve" smooth="yes"/>
      <point x="141" y="416"/>
      <point x="130" y="430"/>
      <point x="130" y="454" type="curve" smooth="yes"/>
      <point x="130" y="505"/>
      <point x="171" y="571"/>
      <point x="221" y="571" type="curve" smooth="yes"/>
      <point x="231" y="571"/>
      <point x="236" y="570"/>
      <point x="243" y="568" type="curve"/>
    </contour>
  </outline>
</glyph>
<glyph name="logicalnot" format="1">
  <advance width="542"/>
  <unicode hex="00AC"/>
  <outline>
    <contour>
      <point x="326" y="96" type="line"/>
      <point x="424" y="125" type="line"/>
      <point x="469" y="333" type="line"/>
      <point x="94" y="333" type="line"/>
      <point x="58" y="241" type="line"/>
      <point x="358" y="241" type="line"/>
    </contour>
  </outline>
</glyph>
<glyph name="macron" format="1">
  <advance width="526"/>
  <unicode hex="00AF"/>
  <outline>
    <contour>
      <point x="439" y="534" type="line"/>
      <point x="476" y="628" type="line"/>
      <point x="200" y="628" type="line"/>
      <point x="163" y="534" type="line"/>
    </contour>
  </outline>
</glyph>
<glyph name="degree" format="1">
  <advance width="293"/>
  <unicode hex="00B0"/>
  <outline>
    <contour>
      <point x="269" y="455"/>
      <point x="359" y="536"/>
      <point x="359" y="628" type="curve" smooth="yes"/>
      <point x="359" y="693"/>
      <point x="311" y="742"/>
      <point x="242" y="742" type="curve" smooth="yes"/>
      <point x="154" y="742"/>
      <point x="65" y="661"/>
      <point x="65" y="568" type="curve" smooth="yes"/>
      <point x="65" y="503"/>
      <point x="112" y="455"/>
      <point x="181" y="455" type="curve" smooth="yes"/>
    </contour>
    <contour>
      <point x="250" y="655"/>
      <point x="270" y="635"/>
      <point x="270" y="609" type="curve" smooth="yes"/>
      <point x="270" y="574"/>
      <point x="232" y="541"/>
      <point x="200" y="541" type="curve" smooth="yes"/>
      <point x="174" y="541"/>
      <point x="154" y="561"/>
      <point x="154" y="586" type="curve" smooth="yes"/>
      <point x="154" y="622"/>
      <point x="190" y="655"/>
      <point x="224" y="655" type="curve" smooth="yes"/>
    </contour>
  </outline>
</glyph>
<glyph name="plusminus" format="1">
  <advance width="461"/>
  <unicode hex="00B1"/>
  <outline>
    <contour>
      <point x="1" y="0" type="line"/>
      <point x="311" y="0" type="line"/>
      <point x="347" y="93" type="line"/>
      <point x="38" y="93" type="line"/>
    </contour>
    <contour>
      <point x="414" y="340" type="line"/>
      <point x="284" y="340" type="line"/>
      <point x="310" y="465" type="line"/>
      <point x="213" y="447" type="line"/>
      <point x="190" y="340" type="line"/>
      <point x="78" y="340" type="line"/>
      <point x="42" y="246" type="line"/>
      <point x="170" y="246" type="line"/>
      <point x="142" y="117" type="line"/>
      <point x="240" y="134" type="line"/>
      <point x="264" y="246" type="line"/>
      <point x="375" y="246" type="line"/>
    </contour>
  </outline>
</glyph>
<glyph name="mu" format="1">
  <advance width="541"/>
  <unicode hex="00B5"/>
  <outline>
    <contour>
      <point x="47" y="195"/>
      <point x="11" y="-111"/>
      <point x="8" y="-146" type="curve"/>
      <point x="100" y="-163" type="line"/>
      <point x="120" y="0" type="line"/>
      <point x="133" y="-4"/>
      <point x="150" y="-5"/>
      <point x="165" y="-5" type="curve" smooth="yes"/>
      <point x="215" y="-5"/>
      <point x="269" y="15"/>
      <point x="307" y="37" type="curve"/>
      <point x="299" y="-3" type="line"/>
      <point x="404" y="13" type="line"/>
      <point x="510" y="509" type="line"/>
      <point x="407" y="492" type="line"/>
      <point x="338" y="168" type="line" smooth="yes"/>
      <point x="336" y="159"/>
      <point x="332" y="147"/>
      <point x="327" y="144" type="curve"/>
      <point x="307" y="125"/>
      <point x="241" y="85"/>
      <point x="186" y="85" type="curve" smooth="yes"/>
      <point x="158" y="85"/>
      <point x="143" y="101"/>
      <point x="143" y="149" type="curve" smooth="yes"/>
      <point x="143" y="185"/>
      <point x="151" y="239"/>
      <point x="168" y="317" type="curve" smooth="yes"/>
      <point x="184" y="393"/>
      <point x="222" y="489"/>
      <point x="230" y="510" type="curve"/>
      <point x="126" y="493" type="line"/>
      <point x="115" y="461"/>
      <point x="84" y="368"/>
      <point x="67" y="288" type="curve" smooth="yes"/>
    </contour>
  </outline>
</glyph>
<glyph name="Aring" format="1">
  <advance width="649"/>
  <unicode hex="00C5"/>
  <outline>
    <contour>
      <point x="481" y="702"/>
      <point x="584" y="752"/>
      <point x="584" y="850" type="curve" smooth="yes"/>
      <point x="584" y="900"/>
      <point x="547" y="942"/>
      <point x="478" y="942" type="curve" smooth="yes"/>
      <point x="388" y="942"/>
      <point x="300" y="873"/>
      <point x="300" y="792" type="curve" smooth="yes"/>
      <point x="300" y="740"/>
      <point x="341" y="702"/>
      <point x="408" y="702" type="curve" smooth="yes"/>
    </contour>
    <contour>
      <point x="481" y="857"/>
      <point x="498" y="845"/>
      <point x="498" y="830" type="curve" smooth="yes"/>
      <point x="498" y="805"/>
      <point x="457" y="786"/>
      <point x="428" y="786" type="curve" smooth="yes"/>
      <point x="405" y="786"/>
      <point x="388" y="796"/>
      <point x="388" y="810" type="curve" smooth="yes"/>
      <point x="388" y="840"/>
      <point x="433" y="857"/>
      <point x="457" y="857" type="curve" smooth="yes"/>
    </contour>
    <contour>
      <point x="465" y="684" type="line"/>
      <point x="363" y="666" type="line"/>
      <point x="137" y="279" type="line"/>
      <point x="54" y="264" type="line"/>
      <point x="50" y="168" type="line"/>
      <point x="74" y="171" type="line"/>
      <point x="-6" y="36" type="line"/>
      <point x="72" y="-8" type="line"/>
      <point x="190" y="195" type="line"/>
      <point x="413" y="240" type="line"/>
      <point x="443" y="-12" type="line"/>
      <point x="539" y="45" type="line"/>
    </contour>
    <contour>
      <point x="253" y="303" type="line"/>
      <point x="380" y="518" type="line"/>
      <point x="402" y="334" type="line"/>
    </contour>
  </outline>
</glyph>
<glyph name="Eacute" format="1">
  <advance width="637"/>
  <unicode hex="00C9"/>
  <outline>
    <contour>
      <point x="281" y="772" type="line"/>
      <point x="340" y="710" type="line"/>
      <point x="556" y="831" type="line"/>
      <point x="486" y="906" type="line"/>
    </contour>
    <contour>
      <point x="126" y="99" type="line"/>
      <point x="169" y="304" type="line"/>
      <point x="506" y="304" type="line"/>
      <point x="556" y="402" type="line"/>
      <point x="190" y="402" type="line"/>
      <point x="228" y="582" type="line"/>
      <point x="611" y="582" type="line"/>
      <point x="649" y="681" type="line"/>
      <point x="150" y="681" type="line"/>
      <point x="6" y="0" type="line"/>
      <point x="480" y="0" type="line"/>
      <point x="536" y="99" type="line"/>
    </contour>
  </outline>
</glyph>
<glyph name="Iacute" format="1">
  <advance width="463"/>
  <unicode hex="00CD"/>
  <outline>
    <contour>
      <point x="209" y="772" type="line"/>
      <point x="268" y="710" type="line"/>
      <point x="484" y="831" type="line"/>
      <point x="414" y="906" type="line"/>
    </contour>
    <contour>
      <point x="450" y="582" type="line"/>
      <point x="489" y="681" type="line"/>
      <point x="154" y="681" type="line"/>
      <point x="116" y="582" type="line"/>
      <point x="245" y="582" type="line"/>
      <point x="143" y="99" type="line"/>
      <point x="31" y="99" type="line"/>
      <point x="-7" y="0" type="line"/>
      <point x="327" y="0" type="line"/>
      <point x="366" y="99" type="line"/>
      <point x="242" y="99" type="line"/>
      <point x="344" y="582" type="line"/>
    </contour>
  </outline>
</glyph>
<glyph name="Icircumflex" format="1">
  <advance width="463"/>
  <unicode hex="00CE"/>
  <outline>
    <contour>
      <point x="216" y="700" type="line"/>
      <point x="342" y="783" type="line"/>
      <point x="417" y="701" type="line"/>
      <point x="496" y="771" type="line"/>
      <point x="372" y="895" type="line"/>
      <point x="172" y="776" type="line"/>
    </contour>
    <contour>
      <point x="450" y="582" type="line"/>
      <point x="489" y="681" type="line"/>
      <point x="154" y="681" type="line"/>
      <point x="116" y="582" type="line"/>
      <point x="245" y="582" type="line"/>
      <point x="143" y="99" type="line"/>
      <point x="31" y="99" type="line"/>
      <point x="-7" y="0" type="line"/>
      <point x="327" y="0" type="line"/>
      <point x="366" y="99" type="line"/>
      <point x="242" y="99" type="line"/>
      <point x="344" y="582" type="line"/>
    </contour>
  </outline>
</glyph>
<glyph name="Idieresis" format="1">
  <advance width="463"/>
  <unicode hex="00CF"/>
  <outline>
    <contour>
      <point x="331" y="833" type="line"/>
      <point x="211" y="818" type="line"/>
      <point x="173" y="704" type="line"/>
      <point x="294" y="719" type="line"/>
    </contour>
    <contour>
      <point x="501" y="833" type="line"/>
      <point x="381" y="818" type="line"/>
      <point x="343" y="704" type="line"/>
      <point x="464" y="719" type="line"/>
    </contour>
    <contour>
      <point x="450" y="582" type="line"/>
      <point x="489" y="681" type="line"/>
      <point x="154" y="681" type="line"/>
      <point x="116" y="582" type="line"/>
      <point x="245" y="582" type="line"/>
      <point x="143" y="99" type="line"/>
      <point x="31" y="99" type="line"/>
      <point x="-7" y="0" type="line"/>
      <point x="327" y="0" type="line"/>
      <point x="366" y="99" type="line"/>
      <point x="242" y="99" type="line"/>
      <point x="344" y="582" type="line"/>
    </contour>
  </outline>
</glyph>
<glyph name="Odieresis" format="1">
  <advance width="686"/>
  <unicode hex="00D6"/>
  <outline>
    <contour>
      <point x="454" y="833" type="line"/>
      <point x="334" y="818" type="line"/>
      <point x="296" y="704" type="line"/>
      <point x="417" y="719" type="line"/>
    </contour>
    <contour>
      <point x="623" y="833" type="line"/>
      <point x="503" y="818" type="line"/>
      <point x="466" y="704" type="line"/>
      <point x="586" y="719" type="line"/>
    </contour>
    <contour>
      <point x="433" y="0"/>
      <point x="639" y="217"/>
      <point x="639" y="449" type="curve" smooth="yes"/>
      <point x="639" y="583"/>
      <point x="564" y="684"/>
      <point x="441" y="684" type="curve" smooth="yes"/>
      <point x="265" y="684"/>
      <point x="60" y="466"/>
      <point x="60" y="234" type="curve" smooth="yes"/>
      <point x="60" y="101"/>
      <point x="133" y="0"/>
      <point x="257" y="0" type="curve" smooth="yes"/>
    </contour>
    <contour>
      <point x="495" y="589"/>
      <point x="539" y="513"/>
      <point x="539" y="423" type="curve" smooth="yes"/>
      <point x="539" y="254"/>
      <point x="391" y="95"/>
      <point x="277" y="95" type="curve" smooth="yes"/>
      <point x="202" y="95"/>
      <point x="158" y="162"/>
      <point x="158" y="252" type="curve" smooth="yes"/>
      <point x="158" y="431"/>
      <point x="302" y="589"/>
      <point x="415" y="589" type="curve" smooth="yes"/>
    </contour>
  </outline>
</glyph>
<glyph name="Oslash" format="1">
  <advance width="686"/>
  <unicode hex="00D8"/>
  <outline>
    <contour>
      <point x="657" y="697" type="line"/>
      <point x="584" y="746" type="line"/>
      <point x="523" y="666" type="line"/>
      <point x="499" y="677"/>
      <point x="471" y="683"/>
      <point x="441" y="683" type="curve" smooth="yes"/>
      <point x="262" y="683"/>
      <point x="58" y="460"/>
      <point x="58" y="225" type="curve" smooth="yes"/>
      <point x="58" y="178"/>
      <point x="68" y="136"/>
      <point x="89" y="100" type="curve"/>
      <point x="17" y="7" type="line"/>
      <point x="91" y="-39" type="line"/>
      <point x="147" y="33" type="line"/>
      <point x="176" y="12"/>
      <point x="217" y="-1"/>
      <point x="256" y="-1" type="curve" smooth="yes"/>
      <point x="436" y="-1"/>
      <point x="638" y="219"/>
      <point x="638" y="453" type="curve" smooth="yes"/>
      <point x="638" y="514"/>
      <point x="624" y="570"/>
      <point x="590" y="611" type="curve"/>
    </contour>
    <contour>
      <point x="163" y="197" type="line"/>
      <point x="159" y="213"/>
      <point x="157" y="230"/>
      <point x="157" y="249" type="curve" smooth="yes"/>
      <point x="157" y="428"/>
      <point x="300" y="588"/>
      <point x="414" y="588" type="curve" smooth="yes"/>
      <point x="429" y="588"/>
      <point x="444" y="585"/>
      <point x="457" y="579" type="curve"/>
    </contour>
    <contour>
      <point x="250" y="94"/>
      <point x="228" y="102"/>
      <point x="209" y="116" type="curve"/>
      <point x="519" y="517" type="line"/>
      <point x="531" y="489"/>
      <point x="538" y="455"/>
      <point x="538" y="419" type="curve" smooth="yes"/>
      <point x="538" y="301"/>
      <point x="425" y="94"/>
      <point x="276" y="94" type="curve" smooth="yes"/>
    </contour>
  </outline>
</glyph>
<glyph name="Thorn" format="1">
  <advance width="532"/>
  <unicode hex="00DE"/>
  <outline>
    <contour>
      <point x="146" y="670" type="line"/>
      <point x="2" y="-6" type="line"/>
      <point x="103" y="16" type="line"/>
      <point x="128" y="135" type="line"/>
      <point x="278" y="146"/>
      <point x="518" y="205"/>
      <point x="518" y="421" type="curve" smooth="yes"/>
      <point x="518" y="561"/>
      <point x="350" y="581"/>
      <point x="225" y="583" type="curve"/>
      <point x="248" y="691" type="line"/>
    </contour>
    <contour>
      <point x="205" y="486" type="line"/>
      <point x="325" y="481"/>
      <point x="415" y="453"/>
      <point x="415" y="391" type="curve" smooth="yes"/>
      <point x="415" y="299"/>
      <point x="295" y="245"/>
      <point x="150" y="234" type="curve"/>
    </contour>
  </outline>
</glyph>
<glyph name="germandbls" format="1">
  <advance width="551"/>
  <unicode hex="00DF"/>
  <outline>
    <contour>
      <point x="457" y="570"/>
      <point x="397" y="627"/>
      <point x="315" y="627" type="curve" smooth="yes"/>
      <point x="220" y="627"/>
      <point x="123" y="551"/>
      <point x="103" y="457" type="curve" smooth="yes"/>
      <point x="3" y="-14" type="line"/>
      <point x="105" y="33" type="line"/>
      <point x="195" y="457" type="line" smooth="yes"/>
      <point x="204" y="499"/>
      <point x="252" y="535"/>
      <point x="295" y="535" type="curve" smooth="yes"/>
      <point x="332" y="535"/>
      <point x="362" y="506"/>
      <point x="362" y="471" type="curve" smooth="yes"/>
      <point x="362" y="434"/>
      <point x="333" y="387"/>
      <point x="240" y="375" type="curve"/>
      <point x="192" y="276" type="line"/>
      <point x="248" y="287"/>
      <point x="281" y="291"/>
      <point x="296" y="291" type="curve" smooth="yes"/>
      <point x="350" y="291"/>
      <point x="381" y="250"/>
      <point x="381" y="204" type="curve" smooth="yes"/>
      <point x="381" y="134"/>
      <point x="317" y="71"/>
      <point x="252" y="71" type="curve" smooth="yes"/>
      <point x="234" y="71"/>
      <point x="207" y="78"/>
      <point x="186" y="95" type="curve"/>
      <point x="124" y="13" type="line"/>
      <point x="163" y="-14"/>
      <point x="203" y="-22"/>
      <point x="237" y="-22" type="curve" smooth="yes"/>
      <point x="364" y="-22"/>
      <point x="477" y="101"/>
      <point x="477" y="227" type="curve" smooth="yes"/>
      <point x="477" y="292"/>
      <point x="443" y="337"/>
      <point x="392" y="360" type="curve"/>
      <point x="434" y="390"/>
      <point x="457" y="444"/>
      <point x="457" y="492" type="curve" smooth="yes"/>
    </contour>
  </outline>
</glyph>
<glyph name="aring" format="1">
  <advance width="530"/>
  <unicode hex="00E5"/>
  <outline>
    <contour>
      <point x="397" y="542"/>
      <point x="500" y="592"/>
      <point x="500" y="690" type="curve" smooth="yes"/>
      <point x="500" y="740"/>
      <point x="463" y="782"/>
      <point x="394" y="782" type="curve" smooth="yes"/>
      <point x="304" y="782"/>
      <point x="216" y="713"/>
      <point x="216" y="632" type="curve" smooth="yes"/>
      <point x="216" y="580"/>
      <point x="257" y="542"/>
      <point x="324" y="542" type="curve" smooth="yes"/>
    </contour>
    <contour>
      <point x="397" y="697"/>
      <point x="414" y="685"/>
      <point x="414" y="670" type="curve" smooth="yes"/>
      <point x="414" y="645"/>
      <point x="373" y="626"/>
      <point x="344" y="626" type="curve" smooth="yes"/>
      <point x="321" y="626"/>
      <point x="304" y="636"/>
      <point x="304" y="650" type="curve" smooth="yes"/>
      <point x="304" y="680"/>
      <point x="349" y="697"/>
      <point x="373" y="697" type="curve" smooth="yes"/>
    </contour>
    <contour>
      <point x="490" y="466" type="line"/>
      <point x="444" y="492"/>
      <point x="392" y="512"/>
      <point x="338" y="512" type="curve" smooth="yes"/>
      <point x="168" y="512"/>
      <point x="33" y="312"/>
      <point x="33" y="166" type="curve" smooth="yes"/>
      <point x="33" y="69"/>
      <point x="93" y="6"/>
      <point x="186" y="6" type="curve" smooth="yes"/>
      <point x="227" y="6"/>
      <point x="266" y="18"/>
      <point x="302" y="34" type="curve"/>
      <point x="293" y="-5" type="line"/>
      <point x="393" y="13" type="line"/>
    </contour>
    <contour>
      <point x="342" y="417"/>
      <point x="367" y="412"/>
      <point x="382" y="404" type="curve"/>
      <point x="323" y="143" type="line"/>
      <point x="295" y="126"/>
      <point x="245" y="102"/>
      <point x="205" y="102" type="curve" smooth="yes"/>
      <point x="151" y="102"/>
      <point x="133" y="145"/>
      <point x="133" y="189" type="curve" smooth="yes"/>
      <point x="133" y="292"/>
      <point x="218" y="417"/>
      <point x="323" y="417" type="curve" smooth="yes"/>
    </contour>
  </outline>
</glyph>
<glyph name="ccedilla" format="1">
  <advance width="533"/>
  <unicode hex="00E7"/>
  <outline>
    <contour>
      <point x="127" y="-54" type="line"/>
      <point x="160" y="-98" type="line"/>
      <point x="166" y="-93"/>
      <point x="177" y="-90"/>
      <point x="184" y="-90" type="curve" smooth="yes"/>
      <point x="202" y="-90"/>
      <point x="211" y="-97"/>
      <point x="211" y="-110" type="curve" smooth="yes"/>
      <point x="211" y="-128"/>
      <point x="195" y="-139"/>
      <point x="178" y="-139" type="curve" smooth="yes"/>
      <point x="164" y="-139"/>
      <point x="153" y="-132"/>
      <point x="149" y="-123" type="curve"/>
      <point x="98" y="-157" type="line"/>
      <point x="115" y="-186"/>
      <point x="135" y="-196"/>
      <point x="166" y="-196" type="curve" smooth="yes"/>
      <point x="224" y="-196"/>
      <point x="280" y="-159"/>
      <point x="280" y="-94" type="curve" smooth="yes"/>
      <point x="280" y="-54"/>
      <point x="249" y="-37"/>
      <point x="204" y="-33" type="curve"/>
      <point x="213" y="0" type="line"/>
      <point x="224" y="0" type="line"/>
      <point x="302" y="3"/>
      <point x="381" y="47"/>
      <point x="439" y="114" type="curve"/>
      <point x="382" y="186" type="line"/>
      <point x="339" y="129"/>
      <point x="286" y="93"/>
      <point x="235" y="93" type="curve" smooth="yes"/>
      <point x="199" y="93"/>
      <point x="129" y="112"/>
      <point x="129" y="189" type="curve" smooth="yes"/>
      <point x="129" y="257"/>
      <point x="213" y="409"/>
      <point x="307" y="409" type="curve" smooth="yes"/>
      <point x="341" y="409"/>
      <point x="373" y="386"/>
      <point x="389" y="342" type="curve"/>
      <point x="474" y="411" type="line"/>
      <point x="442" y="470"/>
      <point x="390" y="502"/>
      <point x="325" y="502" type="curve" smooth="yes"/>
      <point x="163" y="502"/>
      <point x="34" y="279"/>
      <point x="34" y="174" type="curve" smooth="yes"/>
      <point x="34" y="91"/>
      <point x="86" y="26"/>
      <point x="161" y="6" type="curve"/>
    </contour>
  </outline>
</glyph>
<glyph name="eth" format="1">
  <advance width="508"/>
  <unicode hex="00F0"/>
  <outline>
    <contour>
      <point x="472" y="590" type="line"/>
      <point x="462" y="666" type="line"/>
      <point x="411" y="647"/>
      <point x="364" y="626"/>
      <point x="327" y="608" type="curve"/>
      <point x="314" y="626"/>
      <point x="290" y="649"/>
      <point x="277" y="661" type="curve"/>
      <point x="200" y="592" type="line"/>
      <point x="208" y="586"/>
      <point x="222" y="574"/>
      <point x="233" y="561" type="curve"/>
      <point x="200" y="544"/>
      <point x="164" y="523"/>
      <point x="131" y="504" type="curve"/>
      <point x="153" y="427" type="line"/>
      <point x="170" y="439"/>
      <point x="232" y="476"/>
      <point x="280" y="501" type="curve"/>
      <point x="292" y="485"/>
      <point x="306" y="458"/>
      <point x="316" y="437" type="curve"/>
      <point x="165" y="416"/>
      <point x="26" y="299"/>
      <point x="26" y="138" type="curve" smooth="yes"/>
      <point x="26" y="54"/>
      <point x="81" y="0"/>
      <point x="164" y="0" type="curve" smooth="yes"/>
      <point x="329" y="0"/>
      <point x="446" y="176"/>
      <point x="446" y="321" type="curve" smooth="yes"/>
      <point x="446" y="406"/>
      <point x="412" y="483"/>
      <point x="370" y="547" type="curve"/>
    </contour>
    <contour>
      <point x="144" y="92"/>
      <point x="119" y="116"/>
      <point x="119" y="157" type="curve" smooth="yes"/>
      <point x="119" y="271"/>
      <point x="230" y="351"/>
      <point x="346" y="350" type="curve"/>
      <point x="349" y="333"/>
      <point x="351" y="315"/>
      <point x="351" y="298" type="curve" smooth="yes"/>
      <point x="351" y="209"/>
      <point x="279" y="92"/>
      <point x="183" y="92" type="curve" smooth="yes"/>
    </contour>
  </outline>
</glyph>
<glyph name="oacute" format="1">
  <advance width="561"/>
  <unicode hex="00F3"/>
  <outline>
    <contour>
      <point x="255" y="600" type="line"/>
      <point x="313" y="540" type="line"/>
      <point x="524" y="658" type="line"/>
      <point x="456" y="731" type="line"/>
    </contour>
    <contour>
      <point x="339" y="0"/>
      <point x="496" y="154"/>
      <point x="496" y="322" type="curve" smooth="yes"/>
      <point x="496" y="422"/>
      <point x="432" y="500"/>
      <point x="333" y="500" type="curve" smooth="yes"/>
      <point x="193" y="500"/>
      <point x="36" y="344"/>
      <point x="36" y="177" type="curve" smooth="yes"/>
      <point x="36" y="76"/>
      <point x="99" y="0"/>
      <point x="199" y="0" type="curve" smooth="yes"/>
    </contour>
    <contour>
      <point x="363" y="411"/>
      <point x="396" y="363"/>
      <point x="396" y="301" type="curve" smooth="yes"/>
      <point x="396" y="193"/>
      <point x="296" y="89"/>
      <point x="217" y="89" type="curve" smooth="yes"/>
      <point x="164" y="89"/>
      <point x="135" y="134"/>
      <point x="135" y="193" type="curve" smooth="yes"/>
      <point x="135" y="302"/>
      <point x="228" y="411"/>
      <point x="310" y="411" type="curve" smooth="yes"/>
    </contour>
  </outline>
</glyph>
<glyph name="otilde" format="1">
  <advance width="561"/>
  <unicode hex="00F5"/>
  <outline>
    <contour>
      <point x="339" y="0"/>
      <point x="496" y="154"/>
      <point x="496" y="322" type="curve" smooth="yes"/>
      <point x="496" y="422"/>
      <point x="432" y="500"/>
      <point x="333" y="500" type="curve" smooth="yes"/>
      <point x="193" y="500"/>
      <point x="36" y="344"/>
      <point x="36" y="177" type="curve" smooth="yes"/>
      <point x="36" y="76"/>
      <point x="99" y="0"/>
      <point x="199" y="0" type="curve" smooth="yes"/>
    </contour>
    <contour>
      <point x="363" y="411"/>
      <point x="396" y="363"/>
      <point x="396" y="301" type="curve" smooth="yes"/>
      <point x="396" y="193"/>
      <point x="296" y="89"/>
      <point x="217" y="89" type="curve" smooth="yes"/>
      <point x="164" y="89"/>
      <point x="135" y="134"/>
      <point x="135" y="193" type="curve" smooth="yes"/>
      <point x="135" y="302"/>
      <point x="228" y="411"/>
      <point x="310" y="411" type="curve" smooth="yes"/>
    </contour>
    <contour>
      <point x="508" y="701" type="line"/>
      <point x="483" y="647"/>
      <point x="452" y="624"/>
      <point x="431" y="624" type="curve" smooth="yes"/>
      <point x="418" y="624"/>
      <point x="406" y="639"/>
      <point x="397" y="658" type="curve" smooth="yes"/>
      <point x="381" y="691"/>
      <point x="361" y="708"/>
      <point x="320" y="708" type="curve" smooth="yes"/>
      <point x="242" y="708"/>
      <point x="187" y="640"/>
      <point x="160" y="584" type="curve"/>
      <point x="218" y="551" type="line"/>
      <point x="222" y="563"/>
      <point x="254" y="619"/>
      <point x="289" y="619" type="curve" smooth="yes"/>
      <point x="304" y="619"/>
      <point x="312" y="607"/>
      <point x="324" y="584" type="curve" smooth="yes"/>
      <point x="339" y="553"/>
      <point x="362" y="536"/>
      <point x="394" y="536" type="curve" smooth="yes"/>
      <point x="495" y="536"/>
      <point x="551" y="638"/>
      <point x="569" y="669" type="curve"/>
    </contour>
  </outline>
</glyph>
<glyph name="odieresis" format="1">
  <advance width="561"/>
  <unicode hex="00F6"/>
  <outline>
    <contour>
      <point x="359" y="672" type="line"/>
      <point x="244" y="658" type="line"/>
      <point x="207" y="546" type="line"/>
      <point x="325" y="561" type="line"/>
    </contour>
    <contour>
      <point x="525" y="672" type="line"/>
      <point x="409" y="658" type="line"/>
      <point x="373" y="546" type="line"/>
      <point x="490" y="561" type="line"/>
    </contour>
    <contour>
      <point x="339" y="0"/>
      <point x="496" y="154"/>
      <point x="496" y="322" type="curve" smooth="yes"/>
      <point x="496" y="422"/>
      <point x="432" y="500"/>
      <point x="333" y="500" type="curve" smooth="yes"/>
      <point x="193" y="500"/>
      <point x="36" y="344"/>
      <point x="36" y="177" type="curve" smooth="yes"/>
      <point x="36" y="76"/>
      <point x="99" y="0"/>
      <point x="199" y="0" type="curve" smooth="yes"/>
    </contour>
    <contour>
      <point x="363" y="411"/>
      <point x="396" y="363"/>
      <point x="396" y="301" type="curve" smooth="yes"/>
      <point x="396" y="193"/>
      <point x="296" y="89"/>
      <point x="217" y="89" type="curve" smooth="yes"/>
      <point x="164" y="89"/>
      <point x="135" y="134"/>
      <point x="135" y="193" type="curve" smooth="yes"/>
      <point x="135" y="302"/>
      <point x="228" y="411"/>
      <point x="310" y="411" type="curve" smooth="yes"/>
    </contour>
  </outline>
</glyph>
<glyph name="yacute" format="1">
  <advance width="526"/>
  <unicode hex="00FD"/>
  <outline>
    <contour>
      <point x="206" y="600" type="line"/>
      <point x="265" y="540" type="line"/>
      <point x="476" y="658" type="line"/>
      <point x="407" y="731" type="line"/>
    </contour>
    <contour>
      <point x="456" y="507" type="line"/>
      <point x="241" y="190" type="line"/>
      <point x="150" y="506" type="line"/>
      <point x="55" y="463" type="line"/>
      <point x="166" y="77" type="line"/>
      <point x="14" y="-147" type="line"/>
      <point x="93" y="-188" type="line"/>
      <point x="536" y="466" type="line"/>
    </contour>
  </outline>
</glyph>
<glyph name="thorn" format="1">
  <advance width="554"/>
  <unicode hex="00FE"/>
  <outline>
    <contour>
      <point x="294" y="490"/>
      <point x="239" y="472"/>
      <point x="198" y="447" type="curve"/>
      <point x="247" y="678" type="line"/>
      <point x="147" y="660" type="line"/>
      <point x="-27" y="-156" type="line"/>
      <point x="66" y="-173" type="line"/>
      <point x="106" y="15" type="line"/>
      <point x="133" y="7"/>
      <point x="170" y="0"/>
      <point x="206" y="0" type="curve" smooth="yes"/>
      <point x="391" y="0"/>
      <point x="492" y="186"/>
      <point x="492" y="337" type="curve" smooth="yes"/>
      <point x="492" y="418"/>
      <point x="457" y="490"/>
      <point x="350" y="490" type="curve" smooth="yes"/>
    </contour>
    <contour>
      <point x="182" y="95"/>
      <point x="146" y="104"/>
      <point x="126" y="111" type="curve"/>
      <point x="163" y="286" type="line" smooth="yes"/>
      <point x="176" y="346"/>
      <point x="248" y="394"/>
      <point x="332" y="394" type="curve" smooth="yes"/>
      <point x="381" y="394"/>
      <point x="395" y="352"/>
      <point x="395" y="310" type="curve" smooth="yes"/>
      <point x="395" y="205"/>
      <point x="329" y="95"/>
      <point x="219" y="95" type="curve" smooth="yes"/>
    </contour>
  </outline>
</glyph>
<glyph name="Ccaron" format="1">
  <advance width="657"/>
  <unicode hex="010C"/>
  <outline>
    <contour>
      <point x="589" y="897" type="line"/>
      <point x="460" y="812" type="line"/>
      <point x="387" y="897" type="line"/>
      <point x="308" y="830" type="line"/>
      <point x="433" y="701" type="line"/>
      <point x="633" y="824" type="line"/>
    </contour>
    <contour>
      <point x="384" y="-1"/>
      <point x="494" y="56"/>
      <point x="571" y="149" type="curve"/>
      <point x="514" y="221" type="line"/>
      <point x="456" y="140"/>
      <point x="379" y="95"/>
      <point x="300" y="95" type="curve" smooth="yes"/>
      <point x="208" y="95"/>
      <point x="145" y="163"/>
      <point x="145" y="253" type="curve" smooth="yes"/>
      <point x="145" y="362"/>
      <point x="283" y="585"/>
      <point x="410" y="585" type="curve" smooth="yes"/>
      <point x="469" y="585"/>
      <point x="502" y="561"/>
      <point x="519" y="539" type="curve"/>
      <point x="511" y="502" type="line"/>
      <point x="600" y="502" type="line"/>
      <point x="635" y="665" type="line"/>
      <point x="546" y="665" type="line"/>
      <point x="543" y="651" type="line"/>
      <point x="512" y="667"/>
      <point x="475" y="681"/>
      <point x="435" y="681" type="curve" smooth="yes"/>
      <point x="225" y="681"/>
      <point x="48" y="384"/>
      <point x="48" y="229" type="curve" smooth="yes"/>
      <point x="48" y="95"/>
      <point x="144" y="-1"/>
      <point x="279" y="-1" type="curve" smooth="yes"/>
    </contour>
  </outline>
</glyph>
<glyph name="dcaron" format="1">
  <advance width="635"/>
  <unicode hex="010F"/>
  <outline>
    <contour>
      <point x="646" y="679" type="line"/>
      <point x="542" y="592" type="line"/>
      <point x="579" y="568" type="line"/>
      <point x="512" y="482" type="line"/>
      <point x="587" y="434" type="line"/>
      <point x="723" y="624" type="line"/>
    </contour>
    <contour>
      <point x="445" y="667" type="line"/>
      <point x="401" y="479" type="line"/>
      <point x="372" y="488"/>
      <point x="340" y="496"/>
      <point x="310" y="496" type="curve" smooth="yes"/>
      <point x="152" y="496"/>
      <point x="24" y="347"/>
      <point x="24" y="163" type="curve" smooth="yes"/>
      <point x="24" y="78"/>
      <point x="64" y="5"/>
      <point x="162" y="5" type="curve" smooth="yes"/>
      <point x="219" y="5"/>
      <point x="261" y="23"/>
      <point x="300" y="47" type="curve"/>
      <point x="289" y="-5" type="line"/>
      <point x="384" y="12" type="line"/>
      <point x="542" y="684" type="line"/>
    </contour>
    <contour>
      <point x="330" y="171" type="line" smooth="yes"/>
      <point x="325" y="149"/>
      <point x="259" y="95"/>
      <point x="181" y="95" type="curve" smooth="yes"/>
      <point x="134" y="95"/>
      <point x="122" y="134"/>
      <point x="122" y="175" type="curve" smooth="yes"/>
      <point x="122" y="222"/>
      <point x="148" y="402"/>
      <point x="285" y="402" type="curve" smooth="yes"/>
      <point x="327" y="402"/>
      <point x="361" y="386"/>
      <point x="378" y="376" type="curve"/>
    </contour>
  </outline>
</glyph>
<glyph name="Lslash" format="1">
  <advance width="575"/>
  <unicode hex="0141"/>
  <outline>
    <contour>
      <point x="490" y="29" type="line"/>
      <point x="505" y="128" type="line"/>
      <point x="183" y="104" type="line"/>
      <point x="228" y="318" type="line"/>
      <point x="328" y="374" type="line"/>
      <point x="293" y="457" type="line"/>
      <point x="253" y="435" type="line"/>
      <point x="306" y="683" type="line"/>
      <point x="204" y="665" type="line"/>
      <point x="142" y="374" type="line"/>
      <point x="40" y="318" type="line"/>
      <point x="79" y="234" type="line"/>
      <point x="116" y="254" type="line"/>
      <point x="62" y="-2" type="line"/>
    </contour>
  </outline>
</glyph>
<glyph name="Ncaron" format="1">
  <advance width="641"/>
  <unicode hex="0147"/>
  <outline>
    <contour>
      <point x="559" y="897" type="line"/>
      <point x="430" y="812" type="line"/>
      <point x="357" y="897" type="line"/>
      <point x="278" y="830" type="line"/>
      <point x="403" y="701" type="line"/>
      <point x="603" y="824" type="line"/>
    </contour>
    <contour>
      <point x="549" y="668" type="line"/>
      <point x="447" y="184" type="line"/>
      <point x="239" y="685" type="line"/>
      <point x="146" y="660" type="line"/>
      <point x="6" y="-4" type="line"/>
      <point x="106" y="15" type="line"/>
      <point x="206" y="489" type="line"/>
      <point x="409" y="-3" type="line"/>
      <point x="507" y="16" type="line"/>
      <point x="649" y="686" type="line"/>
    </contour>
  </outline>
</glyph>
<glyph name="Ohungarumlaut" format="1">
  <advance width="686"/>
  <unicode hex="0150"/>
  <outline>
    <contour>
      <point x="228" y="772" type="line"/>
      <point x="287" y="710" type="line"/>
      <point x="493" y="831" type="line"/>
      <point x="433" y="906" type="line"/>
    </contour>
    <contour>
      <point x="447" y="772" type="line"/>
      <point x="496" y="710" type="line"/>
      <point x="713" y="831" type="line"/>
      <point x="652" y="906" type="line"/>
    </contour>
    <contour>
      <point x="433" y="0"/>
      <point x="639" y="217"/>
      <point x="639" y="449" type="curve" smooth="yes"/>
      <point x="639" y="583"/>
      <point x="564" y="684"/>
      <point x="441" y="684" type="curve" smooth="yes"/>
      <point x="265" y="684"/>
      <point x="60" y="466"/>
      <point x="60" y="234" type="curve" smooth="yes"/>
      <point x="60" y="101"/>
      <point x="133" y="0"/>
      <point x="257" y="0" type="curve" smooth="yes"/>
    </contour>
    <contour>
      <point x="495" y="589"/>
      <point x="539" y="513"/>
      <point x="539" y="423" type="curve" smooth="yes"/>
      <point x="539" y="254"/>
      <point x="391" y="95"/>
      <point x="277" y="95" type="curve" smooth="yes"/>
      <point x="202" y="95"/>
      <point x="158" y="162"/>
      <point x="158" y="252" type="curve" smooth="yes"/>
      <point x="158" y="431"/>
      <point x="302" y="589"/>
      <point x="415" y="589" type="curve" smooth="yes"/>
    </contour>
  </outline>
</glyph>
<glyph name="Rcaron" format="1">
  <advance width="620"/>
  <unicode hex="0158"/>
  <outline>
    <contour>
      <point x="527" y="897" type="line"/>
      <point x="398" y="812" type="line"/>
      <point x="324" y="897" type="line"/>
      <point x="244" y="825" type="line"/>
      <point x="370" y="701" type="line"/>
      <point x="570" y="824" type="line"/>
    </contour>
    <contour>
      <point x="229" y="587" type="line"/>
      <point x="244" y="587" type="line" smooth="yes"/>
      <point x="424" y="587"/>
      <point x="480" y="541"/>
      <point x="480" y="484" type="curve" smooth="yes"/>
      <point x="480" y="398"/>
      <point x="360" y="332"/>
      <point x="173" y="322" type="curve"/>
    </contour>
    <contour>
      <point x="312" y="202"/>
      <point x="378" y="143"/>
      <point x="426" y="-13" type="curve"/>
      <point x="516" y="52" type="line"/>
      <point x="480" y="163"/>
      <point x="429" y="233"/>
      <point x="388" y="273" type="curve"/>
      <point x="508" y="326"/>
      <point x="582" y="419"/>
      <point x="582" y="514" type="curve" smooth="yes"/>
      <point x="582" y="662"/>
      <point x="405" y="687"/>
      <point x="276" y="687" type="curve" smooth="yes"/>
      <point x="243" y="687"/>
      <point x="189" y="682"/>
      <point x="150" y="678" type="curve"/>
      <point x="4" y="-5" type="line"/>
      <point x="106" y="12" type="line"/>
      <point x="151" y="225" type="line"/>
      <point x="178" y="229"/>
      <point x="209" y="232"/>
      <point x="226" y="232" type="curve" smooth="yes"/>
      <point x="243" y="232"/>
      <point x="262" y="230"/>
      <point x="273" y="224" type="curve" smooth="yes"/>
    </contour>
  </outline>
</glyph>
<glyph name="rcaron" format="1">
  <advance width="428"/>
  <unicode hex="0159"/>
  <outline>
    <contour>
      <point x="438" y="722" type="line"/>
      <point x="311" y="639" type="line"/>
      <point x="240" y="722" type="line"/>
      <point x="163" y="657" type="line"/>
      <point x="285" y="532" type="line"/>
      <point x="480" y="652" type="line"/>
    </contour>
    <contour>
      <point x="420" y="415" type="line" smooth="yes"/>
      <point x="421" y="420"/>
      <point x="422" y="426"/>
      <point x="422" y="431" type="curve" smooth="yes"/>
      <point x="422" y="472"/>
      <point x="389" y="502"/>
      <point x="340" y="502" type="curve" smooth="yes"/>
      <point x="286" y="502"/>
      <point x="234" y="471"/>
      <point x="193" y="435" type="curve"/>
      <point x="208" y="507" type="line"/>
      <point x="107" y="489" type="line"/>
      <point x="2" y="-5" type="line"/>
      <point x="103" y="12" type="line"/>
      <point x="154" y="252" type="line" smooth="yes"/>
      <point x="170" y="328"/>
      <point x="249" y="407"/>
      <point x="304" y="407" type="curve" smooth="yes"/>
      <point x="315" y="407"/>
      <point x="318" y="398"/>
      <point x="318" y="390" type="curve" smooth="yes"/>
      <point x="318" y="380"/>
      <point x="315" y="365"/>
      <point x="308" y="340" type="curve"/>
      <point x="407" y="356" type="line"/>
    </contour>
  </outline>
</glyph>
<glyph name="uni0163" format="1">
  <advance width="399"/>
  <unicode hex="0163"/>
  <outline>
    <contour>
      <point x="416" y="502" type="line"/>
      <point x="291" y="502" type="line"/>
      <point x="325" y="660" type="line"/>
      <point x="223" y="644" type="line"/>
      <point x="193" y="502" type="line"/>
      <point x="68" y="502" type="line"/>
      <point x="48" y="406" type="line"/>
      <point x="173" y="406" type="line"/>
      <point x="85" y="-5" type="line"/>
      <point x="187" y="12" type="line"/>
      <point x="271" y="406" type="line"/>
      <point x="396" y="406" type="line"/>
    </contour>
    <contour>
      <point x="130" y="-16" type="line"/>
      <point x="25" y="-95" type="line"/>
      <point x="64" y="-119" type="line"/>
      <point x="-4" y="-198" type="line"/>
      <point x="73" y="-247" type="line"/>
      <point x="221" y="-62" type="line"/>
    </contour>
  </outline>
</glyph>
<glyph name="tcaron" format="1">
  <advance width="455"/>
  <unicode hex="0165"/>
  <outline>
    <contour>
      <point x="461" y="751" type="line"/>
      <point x="371" y="684" type="line"/>
      <point x="409" y="660" type="line"/>
      <point x="342" y="574" type="line"/>
      <point x="415" y="526" type="line"/>
      <point x="538" y="696" type="line"/>
    </contour>
    <contour>
      <point x="403" y="502" type="line"/>
      <point x="277" y="502" type="line"/>
      <point x="311" y="660" type="line"/>
      <point x="215" y="644" type="line"/>
      <point x="185" y="502" type="line"/>
      <point x="59" y="502" type="line"/>
      <point x="39" y="406" type="line"/>
      <point x="165" y="406" type="line"/>
      <point x="77" y="-5" type="line"/>
      <point x="173" y="12" type="line"/>
      <point x="257" y="406" type="line"/>
      <point x="383" y="406" type="line"/>
    </contour>
  </outline>
</glyph>
<glyph name="uring" format="1">
  <advance width="541"/>
  <unicode hex="016F"/>
  <outline>
    <contour>
      <point x="178" y="359"/>
      <point x="223" y="488"/>
      <point x="231" y="509" type="curve"/>
      <point x="128" y="492" type="line"/>
      <point x="100" y="418"/>
      <point x="76" y="328"/>
      <point x="67" y="286" type="curve" smooth="yes"/>
      <point x="55" y="229"/>
      <point x="43" y="170"/>
      <point x="43" y="121" type="curve" smooth="yes"/>
      <point x="43" y="48"/>
      <point x="70" y="-5"/>
      <point x="166" y="-5" type="curve" smooth="yes"/>
      <point x="216" y="-5"/>
      <point x="269" y="14"/>
      <point x="308" y="36" type="curve"/>
      <point x="300" y="-4" type="line"/>
      <point x="405" y="12" type="line"/>
      <point x="510" y="508" type="line"/>
      <point x="408" y="491" type="line"/>
      <point x="339" y="167" type="line"/>
      <point x="336" y="155"/>
      <point x="333" y="147"/>
      <point x="328" y="143" type="curve" smooth="yes"/>
      <point x="306" y="125"/>
      <point x="244" y="85"/>
      <point x="189" y="85" type="curve" smooth="yes"/>
      <point x="153" y="85"/>
      <point x="142" y="112"/>
      <point x="142" y="152" type="curve" smooth="yes"/>
      <point x="142" y="189"/>
      <point x="152" y="238"/>
      <point x="162" y="286" type="curve" smooth="yes"/>
    </contour>
    <contour>
      <point x="404" y="542"/>
      <point x="507" y="592"/>
      <point x="507" y="690" type="curve" smooth="yes"/>
      <point x="507" y="740"/>
      <point x="470" y="782"/>
      <point x="401" y="782" type="curve" smooth="yes"/>
      <point x="311" y="782"/>
      <point x="223" y="713"/>
      <point x="223" y="632" type="curve" smooth="yes"/>
      <point x="223" y="580"/>
      <point x="264" y="542"/>
      <point x="331" y="542" type="curve" smooth="yes"/>
    </contour>
    <contour>
      <point x="404" y="697"/>
      <point x="421" y="685"/>
      <point x="421" y="670" type="curve" smooth="yes"/>
      <point x="421" y="645"/>
      <point x="380" y="626"/>
      <point x="351" y="626" type="curve" smooth="yes"/>
      <point x="328" y="626"/>
      <point x="311" y="636"/>
      <point x="311" y="650" type="curve" smooth="yes"/>
      <point x="311" y="680"/>
      <point x="356" y="697"/>
      <point x="380" y="697" type="curve" smooth="yes"/>
    </contour>
  </outline>
</glyph>
<glyph name="Ydieresis" format="1">
  <advance width="654"/>
  <unicode hex="0178"/>
  <outline>
    <contour>
      <point x="434" y="813" type="line"/>
      <point x="315" y="798" type="line"/>
      <point x="275" y="674" type="line"/>
      <point x="396" y="689" type="line"/>
    </contour>
    <contour>
      <point x="603" y="813" type="line"/>
      <point x="484" y="798" type="line"/>
      <point x="444" y="674" type="line"/>
      <point x="565" y="689" type="line"/>
    </contour>
    <contour>
      <point x="336" y="318" type="line"/>
      <point x="202" y="677" type="line"/>
      <point x="90" y="677" type="line"/>
      <point x="258" y="223" type="line"/>
      <point x="80" y="0" type="line"/>
      <point x="193" y="0" type="line"/>
      <point x="738" y="677" type="line"/>
      <point x="625" y="677" type="line"/>
    </contour>
  </outline>
</glyph>
<glyph name="Zdotaccent" format="1">
  <advance width="647"/>
  <unicode hex="017B"/>
  <outline>
    <contour>
      <point x="22" y="0" type="line"/>
      <point x="502" y="0" type="line"/>
      <point x="540" y="103" type="line"/>
      <point x="148" y="103" type="line"/>
      <point x="656" y="603" type="line"/>
      <point x="636" y="681" type="line"/>
      <point x="176" y="681" type="line"/>
      <point x="137" y="578" type="line"/>
      <point x="509" y="578" type="line"/>
      <point x="2" y="77" type="line"/>
    </contour>
    <contour>
      <point x="499" y="834" type="line"/>
      <point x="380" y="819" type="line"/>
      <point x="341" y="704" type="line"/>
      <point x="463" y="720" type="line"/>
    </contour>
  </outline>
</glyph>
<glyph name="Zcaron" format="1">
  <advance width="647"/>
  <unicode hex="017D"/>
  <outline>
    <contour>
      <point x="561" y="907" type="line"/>
      <point x="433" y="822" type="line"/>
      <point x="360" y="907" type="line"/>
      <point x="280" y="835" type="line"/>
      <point x="404" y="701" type="line"/>
      <point x="604" y="829" type="line"/>
    </contour>
    <contour>
      <point x="22" y="0" type="line"/>
      <point x="502" y="0" type="line"/>
      <point x="540" y="103" type="line"/>
      <point x="148" y="103" type="line"/>
      <point x="656" y="603" type="line"/>
      <point x="636" y="681" type="line"/>
      <point x="176" y="681" type="line"/>
      <point x="137" y="578" type="line"/>
      <point x="509" y="578" type="line"/>
      <point x="2" y="77" type="line"/>
    </contour>
  </outline>
</glyph>
<glyph name="ogonek" format="1">
  <advance width="526"/>
  <unicode hex="02DB"/>
  <outline>
    <contour>
      <point x="383" y="18" type="line"/>
      <point x="357" y="74" type="line"/>
      <point x="272" y="30" type="line" smooth="yes"/>
      <point x="215" y="0"/>
      <point x="143" y="-37"/>
      <point x="143" y="-119" type="curve" smooth="yes"/>
      <point x="143" y="-170"/>
      <point x="184" y="-196"/>
      <point x="243" y="-196" type="curve" smooth="yes"/>
      <point x="288" y="-196"/>
      <point x="346" y="-164"/>
      <point x="379" y="-131" type="curve"/>
      <point x="340" y="-75" type="line"/>
      <point x="307" y="-98"/>
      <point x="282" y="-112"/>
      <point x="261" y="-112" type="curve" smooth="yes"/>
      <point x="248" y="-112"/>
      <point x="237" y="-103"/>
      <point x="237" y="-91" type="curve"/>
      <point x="238" y="-64"/>
      <point x="271" y="-45"/>
      <point x="290" y="-34" type="curve" smooth="yes"/>
    </contour>
  </outline>
</glyph>
<glyph name="quoteright" format="1">
  <advance width="208"/>
  <unicode hex="2019"/>
  <outline>
    <contour>
      <point x="196" y="732" type="line"/>
      <point x="93" y="645" type="line"/>
      <point x="129" y="621" type="line"/>
      <point x="62" y="535" type="line"/>
      <point x="137" y="487" type="line"/>
      <point x="283" y="677" type="line"/>
    </contour>
  </outline>
</glyph>
<glyph name="quotedblright" format="1">
  <advance width="374"/>
  <unicode hex="201D"/>
  <outline>
    <contour>
      <point x="180" y="732" type="line"/>
      <point x="77" y="645" type="line"/>
      <point x="113" y="621" type="line"/>
      <point x="46" y="535" type="line"/>
      <point x="121" y="487" type="line"/>
      <point x="267" y="677" type="line"/>
    </contour>
    <contour>
      <point x="371" y="732" type="line"/>
      <point x="267" y="645" type="line"/>
      <point x="304" y="621" type="line"/>
      <point x="237" y="535" type="line"/>
      <point x="312" y="487" type="line"/>
      <point x="458" y="677" type="line"/>
    </contour>
  </outline>
</glyph>
<glyph name="bullet" format="1">
  <advance width="404"/>
  <unicode hex="2022"/>
  <outline>
    <contour>
      <point x="297" y="321"/>
      <point x="264" y="356"/>
      <point x="214" y="356" type="curve" smooth="yes"/>
      <point x="150" y="356"/>
      <point x="87" y="298"/>
      <point x="87" y="231" type="curve" smooth="yes"/>
      <point x="87" y="185"/>
      <point x="120" y="149"/>
      <point x="170" y="149" type="curve" smooth="yes"/>
      <point x="239" y="149"/>
      <point x="297" y="212"/>
      <point x="297" y="275" type="curve" smooth="yes"/>
    </contour>
  </outline>
</glyph>
<glyph name="Euro" format="1">
  <advance width="689"/>
  <unicode hex="20AC"/>
  <outline>
    <contour>
      <point x="419" y="0"/>
      <point x="493" y="25"/>
      <point x="562" y="66" type="curve"/>
      <point x="507" y="132" type="line"/>
      <point x="466" y="110"/>
      <point x="422" y="95"/>
      <point x="372" y="95" type="curve" smooth="yes"/>
      <point x="293" y="95"/>
      <point x="232" y="145"/>
      <point x="224" y="227" type="curve"/>
      <point x="422" y="227" type="line"/>
      <point x="457" y="315" type="line"/>
      <point x="234" y="315" type="line"/>
      <point x="239" y="333"/>
      <point x="246" y="352"/>
      <point x="255" y="370" type="curve"/>
      <point x="471" y="370" type="line"/>
      <point x="507" y="457" type="line"/>
      <point x="305" y="457" type="line"/>
      <point x="348" y="517"/>
      <point x="425" y="579"/>
      <point x="487" y="579" type="curve" smooth="yes"/>
      <point x="537" y="579"/>
      <point x="572" y="557"/>
      <point x="597" y="533" type="curve"/>
      <point x="678" y="597" type="line"/>
      <point x="635" y="646"/>
      <point x="577" y="674"/>
      <point x="512" y="674" type="curve" smooth="yes"/>
      <point x="371" y="674"/>
      <point x="249" y="534"/>
      <point x="205" y="457" type="curve"/>
      <point x="115" y="457" type="line"/>
      <point x="79" y="370" type="line"/>
      <point x="161" y="370" type="line"/>
      <point x="153" y="352"/>
      <point x="148" y="333"/>
      <point x="142" y="315" type="curve"/>
      <point x="84" y="315" type="line"/>
      <point x="49" y="227" type="line"/>
      <point x="129" y="227" type="line"/>
      <point x="128" y="220"/>
      <point x="128" y="213"/>
      <point x="128" y="206" type="curve" smooth="yes"/>
      <point x="128" y="84"/>
      <point x="227" y="0"/>
      <point x="358" y="0" type="curve" smooth="yes"/>
    </contour>
  </outline>
</glyph>
<glyph name="trademark" format="1">
  <advance width="585"/>
  <unicode hex="2122"/>
  <outline>
    <contour>
      <point x="364" y="674" type="line"/>
      <point x="97" y="674" type="line"/>
      <point x="78" y="587" type="line"/>
      <point x="172" y="587" type="line"/>
      <point x="135" y="414" type="line"/>
      <point x="226" y="432" type="line"/>
      <point x="259" y="587" type="line"/>
      <point x="345" y="587" type="line"/>
    </contour>
    <contour>
      <point x="623" y="678" type="line"/>
      <point x="542" y="665" type="line"/>
      <point x="496" y="585" type="line"/>
      <point x="493" y="678" type="line"/>
      <point x="410" y="664" type="line"/>
      <point x="252" y="412" type="line"/>
      <point x="357" y="429" type="line"/>
      <point x="409" y="514" type="line"/>
      <point x="415" y="415" type="line"/>
      <point x="498" y="429" type="line"/>
      <point x="548" y="514" type="line"/>
      <point x="558" y="417" type="line"/>
      <point x="648" y="430" type="line"/>
    </contour>
  </outline>
</glyph>
